# xmcd
#
# Track frame offsets:
#	150
#	20166
#	31867
#	55128
#	68777
#	81599
#	95940
#	118247
#	159077
#	169337
#	183510
# Disc length: 2707 seconds
# Revision: 1
# Processed by: cddbd v1.5.2PL0 Copyright (c) Steve Scherf et al.
#
# Submitted via: libkcddb 0.21
#
DISCID=980a910b
DTITLE=Blues For Days - Stony B and Grandpa Elliott
DYEAR=2006
DGENRE=Blues
TTITLE0=One Bourbon, One Scotch, One Beer
TTITLE1=I'll Play The Blues For You
TTITLE2=It Hurts Me Too
TTITLE3=Get Some Insurance
TTITLE4=King Bee
TTITLE5=Key To The Highway
TTITLE6=Katrina
TTITLE7=Backdoor Man
TTITLE8=Bad, Bad Leroy Brown
TTITLE9=Payin' The Cost
TTITLE10=A Cold Day In Hell
EXTD=NOLA Street Musicians
EXTT0=
EXTT1=
EXTT2=
EXTT3=
EXTT4=
EXTT5=
EXTT6=
EXTT7=
EXTT8=
EXTT9=
EXTT10=
PLAYORDER=
